<svg width="349" height="332" viewBox="0 0 349 332" fill="none" xmlns="http://www.w3.org/2000/svg">
<g clip-path="url(#clip0)">
<path d="M211.238 18.6262L29.4124 57.6094L83.3159 308.64L265.141 269.657L211.238 18.6262Z" fill="#E0E0E0"/>
<g opacity="0.5">
<path opacity="0.5" d="M209.079 23.5297L33.3986 61.1953L85.4801 303.741L261.16 266.075L209.079 23.5297Z" fill="url(#paint0_linear)"/>
</g>
<path d="M207.224 25.7952L36.016 62.502L86.9468 299.688L258.154 262.982L207.224 25.7952Z" fill="#FAFAFA"/>
<path d="M162.103 24.7121L77.1693 42.9219L81.5838 63.4801L166.518 45.2703L162.103 24.7121Z" fill="url(#paint1_linear)"/>
<path d="M115.322 13.7374C108.765 15.1448 104.616 21.7226 106.058 28.428C107.501 35.1334 113.982 39.4365 120.526 38.0291C127.071 36.6216 131.232 30.0438 129.79 23.3384C128.347 16.633 121.879 12.33 115.322 13.7374ZM119.437 32.9139C118.051 33.2442 116.598 33.1546 115.263 32.6567C113.929 32.1588 112.772 31.275 111.942 30.1181C111.112 28.9611 110.645 27.5834 110.602 26.1604C110.558 24.7374 110.939 23.3336 111.697 22.128C112.455 20.9224 113.554 19.9695 114.856 19.3908C116.158 18.8121 117.603 18.6337 119.006 18.8785C120.41 19.1233 121.708 19.7801 122.737 20.7652C123.766 21.7503 124.477 23.0191 124.782 24.4099C124.992 25.3191 125.02 26.2608 124.865 27.1809C124.71 28.101 124.374 28.9815 123.878 29.7717C123.381 30.5619 122.733 31.2463 121.971 31.7855C121.209 32.3247 120.348 32.7082 119.437 32.9139Z" fill="url(#paint2_linear)"/>
<path d="M161.019 24.0234L77.8744 41.8496L82.0942 61.5015L165.239 43.6753L161.019 24.0234Z" fill="#175FFF"/>
<path d="M115.322 13.7391C113.024 14.232 110.923 15.3947 109.287 17.0804C107.65 18.766 106.55 20.8988 106.126 23.2091C105.702 25.5194 105.973 27.9033 106.905 30.0595C107.838 32.2157 109.389 34.0474 111.362 35.3228C113.336 36.5982 115.644 37.2602 117.994 37.2249C120.345 37.1897 122.632 36.4588 124.566 35.1248C126.501 33.7908 127.996 31.9135 128.863 29.7303C129.73 27.5471 129.93 25.1561 129.437 22.8596C129.109 21.3346 128.485 19.889 127.598 18.6053C126.711 17.3216 125.581 16.225 124.27 15.3781C122.959 14.5311 121.494 13.9505 119.959 13.6693C118.424 13.388 116.848 13.4117 115.322 13.7391ZM119.254 32.0651C117.927 32.3496 116.546 32.2345 115.285 31.7346C114.024 31.2346 112.94 30.3722 112.169 29.2563C111.398 28.1405 110.976 26.8214 110.956 25.4659C110.936 24.1103 111.318 22.7792 112.055 21.6409C112.792 20.5026 113.85 19.6082 115.096 19.0708C116.341 18.5334 117.718 18.3771 119.053 18.6218C120.387 18.8665 121.619 19.5011 122.593 20.4454C123.566 21.3897 124.238 22.6013 124.522 23.9268C124.903 25.7041 124.562 27.5599 123.574 29.086C122.587 30.6122 121.032 31.6838 119.254 32.0651Z" fill="#175FFF"/>
<path d="M295.703 49.7109H109.739V306.455H295.703V49.7109Z" fill="#E0E0E0"/>
<g opacity="0.5">
<path opacity="0.5" d="M292.562 54.0508H112.884V302.116H292.562V54.0508Z" fill="url(#paint3_linear)"/>
</g>
<path d="M290.273 55.8789H115.169V298.464H290.273V55.8789Z" fill="white"/>
<path d="M246.384 45.3594H159.517V66.3855H246.384V45.3594Z" fill="url(#paint4_linear)"/>
<path d="M202.951 24.8359C196.244 24.8359 190.806 30.3975 190.806 37.2603C190.806 44.123 196.244 49.6846 202.951 49.6846C209.657 49.6846 215.095 44.123 215.095 37.2603C215.095 30.3975 209.657 24.8359 202.951 24.8359ZM202.951 44.4291C201.525 44.4629 200.121 44.0714 198.919 43.3045C197.717 42.5376 196.772 41.4302 196.202 40.1236C195.633 38.817 195.467 37.3705 195.724 35.9689C195.981 34.5672 196.651 33.274 197.647 32.2544C198.643 31.2347 199.921 30.5348 201.317 30.2442C202.713 29.9535 204.164 30.0852 205.485 30.6224C206.806 31.1596 207.937 32.078 208.733 33.2604C209.529 34.4427 209.954 35.8352 209.955 37.2603C209.968 39.1332 209.239 40.9353 207.927 42.2724C206.614 43.6095 204.825 44.3727 202.951 44.3951V44.4291Z" fill="url(#paint5_linear)"/>
<path d="M245.469 44.459H160.432V64.5582H245.469V44.459Z" fill="#175FFF"/>
<path d="M202.951 24.8359C200.6 24.8359 198.302 25.5324 196.348 26.8374C194.393 28.1423 192.87 29.9971 191.97 32.1671C191.071 34.3371 190.835 36.7249 191.294 39.0286C191.753 41.3323 192.885 43.4484 194.547 45.1092C196.209 46.7701 198.327 47.9012 200.632 48.3594C202.937 48.8176 205.327 48.5824 207.499 47.6836C209.671 46.7847 211.527 45.2626 212.833 43.3096C214.139 41.3566 214.836 39.0606 214.836 36.7118C214.836 33.5621 213.583 30.5414 211.355 28.3143C209.126 26.0871 206.103 24.8359 202.951 24.8359ZM202.951 43.566C201.595 43.5643 200.27 43.1613 199.144 42.4079C198.017 41.6544 197.139 40.5844 196.621 39.3328C196.103 38.0812 195.967 36.7042 196.231 35.3756C196.496 34.047 197.148 32.8265 198.106 31.8681C199.064 30.9097 200.284 30.2564 201.614 29.9907C202.943 29.725 204.321 29.8588 205.574 30.3752C206.828 30.8917 207.9 31.7675 208.655 32.8923C209.41 34.017 209.815 35.3402 209.819 36.6948C209.818 37.5952 209.64 38.4868 209.294 39.3184C208.949 40.1501 208.443 40.9055 207.805 41.5417C207.167 42.1778 206.41 42.6821 205.577 43.0258C204.744 43.3695 203.852 43.5458 202.951 43.5447V43.566Z" fill="#175FFF"/>
<g opacity="0.5">
<path opacity="0.5" d="M8.09778 313.393H6.4978V322.462H8.09778V313.393Z" fill="#24823D"/>
<path opacity="0.5" d="M11.8383 318.73V317.131H2.76179V318.73H11.8383Z" fill="#24823D"/>
</g>
<g opacity="0.5">
<path opacity="0.5" d="M193.721 0H192.121V9.0695H193.721V0Z" fill="#24823D"/>
<path opacity="0.5" d="M197.461 5.33115V3.73242L188.385 3.73242V5.33115L197.461 5.33115Z" fill="#24823D"/>
</g>
<path opacity="0.5" d="M328.115 328.492C327.674 328.3 327.319 327.952 327.117 327.516C326.915 327.079 326.881 326.583 327.022 326.123C327.044 326.053 327.058 325.98 327.064 325.907C327.077 325.696 327.021 325.487 326.906 325.31C326.79 325.134 326.621 324.999 326.423 324.926C326.225 324.853 326.008 324.846 325.806 324.905C325.603 324.964 325.425 325.088 325.298 325.256C325.254 325.315 325.217 325.379 325.188 325.447C324.995 325.888 324.648 326.243 324.211 326.445C323.774 326.646 323.278 326.68 322.817 326.54C322.747 326.517 322.674 326.503 322.6 326.498C322.39 326.485 322.18 326.54 322.004 326.656C321.827 326.771 321.692 326.94 321.619 327.138C321.546 327.336 321.539 327.552 321.598 327.755C321.658 327.957 321.781 328.135 321.949 328.262C322.009 328.306 322.073 328.343 322.141 328.373C322.582 328.565 322.937 328.912 323.139 329.349C323.341 329.785 323.375 330.281 323.234 330.741C323.212 330.811 323.197 330.884 323.192 330.958C323.179 331.168 323.235 331.378 323.35 331.554C323.466 331.731 323.635 331.865 323.833 331.938C324.031 332.011 324.247 332.019 324.45 331.959C324.653 331.9 324.831 331.777 324.958 331.608C325.002 331.549 325.039 331.485 325.068 331.417C325.26 330.976 325.608 330.621 326.045 330.42C326.482 330.218 326.978 330.184 327.439 330.324C327.509 330.347 327.582 330.361 327.656 330.367C327.866 330.38 328.076 330.324 328.252 330.209C328.429 330.093 328.564 329.924 328.637 329.726C328.71 329.528 328.717 329.312 328.658 329.11C328.598 328.907 328.475 328.729 328.307 328.602C328.247 328.558 328.183 328.521 328.115 328.492Z" fill="#24823D"/>
<path opacity="0.5" d="M58.1568 241.3C57.7154 241.108 57.3602 240.761 57.1585 240.324C56.9569 239.888 56.9229 239.392 57.0632 238.932C57.0858 238.862 57.1001 238.789 57.1057 238.715C57.1184 238.505 57.0629 238.295 56.9474 238.119C56.832 237.942 56.6626 237.807 56.4645 237.734C56.2665 237.661 56.0501 237.654 55.8475 237.714C55.645 237.773 55.4669 237.896 55.3398 238.065C55.2955 238.124 55.2584 238.188 55.2291 238.256C55.037 238.697 54.6894 239.052 54.2523 239.253C53.8153 239.455 53.3194 239.489 52.859 239.349C52.7885 239.326 52.7157 239.312 52.6419 239.306C52.4312 239.293 52.222 239.349 52.0452 239.464C51.8685 239.58 51.7336 239.749 51.6605 239.947C51.5875 240.145 51.5802 240.361 51.6397 240.563C51.6992 240.766 51.8223 240.944 51.9909 241.071C52.0502 241.115 52.1144 241.152 52.1824 241.181C52.6237 241.373 52.979 241.721 53.1806 242.157C53.3823 242.594 53.4162 243.09 53.276 243.55C53.2533 243.62 53.2391 243.693 53.2334 243.767C53.2207 243.977 53.2762 244.186 53.3917 244.363C53.5072 244.539 53.6765 244.674 53.8746 244.747C54.0727 244.82 54.289 244.827 54.4916 244.768C54.6942 244.709 54.8722 244.585 54.9994 244.417C55.0436 244.358 55.0807 244.294 55.11 244.226C55.3021 243.785 55.6497 243.43 56.0868 243.228C56.5238 243.027 57.0197 242.993 57.4802 243.133C57.5506 243.156 57.6234 243.17 57.6972 243.175C57.9079 243.188 58.1172 243.133 58.2939 243.017C58.4707 242.902 58.6056 242.733 58.6786 242.535C58.7516 242.337 58.7589 242.121 58.6994 241.918C58.6399 241.716 58.5168 241.538 58.3483 241.411C58.289 241.367 58.2247 241.33 58.1568 241.3Z" fill="#F6A521"/>
<path opacity="0.5" d="M283.009 28.9898C282.568 28.7978 282.213 28.4504 282.011 28.0137C281.809 27.577 281.775 27.0815 281.916 26.6214C281.938 26.551 281.953 26.4783 281.958 26.4046C281.971 26.194 281.915 25.9849 281.8 25.8083C281.684 25.6317 281.515 25.4969 281.317 25.4239C281.119 25.3509 280.903 25.3436 280.7 25.4031C280.497 25.4625 280.319 25.5856 280.192 25.754C280.148 25.8132 280.111 25.8775 280.082 25.9453C279.89 26.3863 279.542 26.7413 279.105 26.9428C278.668 27.1443 278.172 27.1782 277.711 27.0381C277.641 27.0155 277.568 27.0012 277.494 26.9956C277.284 26.9829 277.074 27.0384 276.898 27.1537C276.721 27.2691 276.586 27.4383 276.513 27.6363C276.44 27.8342 276.433 28.0504 276.492 28.2528C276.552 28.4552 276.675 28.6331 276.843 28.7602C276.903 28.8044 276.967 28.8415 277.035 28.8707C277.476 29.0627 277.832 29.4101 278.033 29.8468C278.235 30.2835 278.269 30.779 278.129 31.2391C278.106 31.3094 278.092 31.3822 278.086 31.4559C278.073 31.6665 278.129 31.8756 278.244 32.0522C278.36 32.2288 278.529 32.3636 278.727 32.4366C278.925 32.5095 279.142 32.5169 279.344 32.4574C279.547 32.398 279.725 32.2749 279.852 32.1065C279.896 32.0473 279.933 31.983 279.963 31.9151C280.155 31.4742 280.502 31.1192 280.939 30.9177C281.376 30.7162 281.872 30.6823 282.333 30.8224C282.403 30.845 282.476 30.8593 282.55 30.8649C282.76 30.8776 282.97 30.8221 283.146 30.7067C283.323 30.5914 283.458 30.4222 283.531 30.2242C283.604 30.0263 283.611 29.8101 283.552 29.6077C283.492 29.4053 283.369 29.2274 283.201 29.1003C283.142 29.0561 283.077 29.019 283.009 28.9898Z" fill="#F6A521"/>
<path opacity="0.5" d="M345.8 136.913C347.57 136.913 349.004 135.48 349.004 133.712C349.004 131.943 347.57 130.51 345.8 130.51C344.03 130.51 342.596 131.943 342.596 133.712C342.596 135.48 344.03 136.913 345.8 136.913Z" fill="#F6A521"/>
<path opacity="0.5" d="M98.1818 320.677C99.9514 320.677 101.386 319.243 101.386 317.475C101.386 315.707 99.9514 314.273 98.1818 314.273C96.4121 314.273 94.9775 315.707 94.9775 317.475C94.9775 319.243 96.4121 320.677 98.1818 320.677Z" fill="#F6A521"/>
<path opacity="0.5" d="M312.894 206.12C314.664 206.12 316.098 204.687 316.098 202.919C316.098 201.15 314.664 199.717 312.894 199.717C311.125 199.717 309.69 201.15 309.69 202.919C309.69 204.687 311.125 206.12 312.894 206.12Z" fill="#F6A521"/>
<path opacity="0.5" d="M37.0804 44.1691C38.8501 44.1691 40.2847 42.7357 40.2847 40.9674C40.2847 39.1991 38.8501 37.7656 37.0804 37.7656C35.3108 37.7656 33.8762 39.1991 33.8762 40.9674C33.8762 42.7357 35.3108 44.1691 37.0804 44.1691Z" fill="#24823D"/>
<path opacity="0.5" d="M3.20422 131.509C4.97386 131.509 6.40843 130.075 6.40843 128.307C6.40843 126.539 4.97386 125.105 3.20422 125.105C1.43458 125.105 0 126.539 0 128.307C0 130.075 1.43458 131.509 3.20422 131.509Z" fill="#24823D"/>
</g>
<defs>
<linearGradient id="paint0_linear" x1="173.318" y1="284.908" x2="121.313" y2="42.3465" gradientUnits="userSpaceOnUse">
<stop stop-color="#808080" stop-opacity="0.25"/>
<stop offset="0.54" stop-color="#808080" stop-opacity="0.12"/>
<stop offset="1" stop-color="#808080" stop-opacity="0.1"/>
</linearGradient>
<linearGradient id="paint1_linear" x1="46725.5" y1="-6079.88" x2="46507.6" y2="-7096.56" gradientUnits="userSpaceOnUse">
<stop stop-color="#808080" stop-opacity="0.25"/>
<stop offset="0.54" stop-color="#808080" stop-opacity="0.12"/>
<stop offset="1" stop-color="#808080" stop-opacity="0.1"/>
</linearGradient>
<linearGradient id="paint2_linear" x1="13644" y1="693.486" x2="13339.9" y2="-724.859" gradientUnits="userSpaceOnUse">
<stop stop-color="#808080" stop-opacity="0.25"/>
<stop offset="0.54" stop-color="#808080" stop-opacity="0.12"/>
<stop offset="1" stop-color="#808080" stop-opacity="0.1"/>
</linearGradient>
<linearGradient id="paint3_linear" x1="85711.8" y1="176312" x2="85711.8" y2="31588.2" gradientUnits="userSpaceOnUse">
<stop stop-color="#808080" stop-opacity="0.25"/>
<stop offset="0.54" stop-color="#808080" stop-opacity="0.12"/>
<stop offset="1" stop-color="#808080" stop-opacity="0.1"/>
</linearGradient>
<linearGradient id="paint4_linear" x1="41589.9" y1="3328.17" x2="41589.9" y2="2288.43" gradientUnits="userSpaceOnUse">
<stop stop-color="#808080" stop-opacity="0.25"/>
<stop offset="0.54" stop-color="#808080" stop-opacity="0.12"/>
<stop offset="1" stop-color="#808080" stop-opacity="0.1"/>
</linearGradient>
<linearGradient id="paint5_linear" x1="16388.2" y1="4407.89" x2="16388.2" y2="2955.74" gradientUnits="userSpaceOnUse">
<stop stop-color="#808080" stop-opacity="0.25"/>
<stop offset="0.54" stop-color="#808080" stop-opacity="0.12"/>
<stop offset="1" stop-color="#808080" stop-opacity="0.1"/>
</linearGradient>
<clipPath id="clip0">
<rect width="349" height="332" fill="white"/>
</clipPath>
</defs>
</svg>
